<?xml version="1.0" standalone="no"?>
<!DOCTYPE svg PUBLIC "-//W3C//DTD SVG 20010904//EN"
 "http://www.w3.org/TR/2001/REC-SVG-20010904/DTD/svg10.dtd">
<svg version="1.0" xmlns="http://www.w3.org/2000/svg"
 width="354.000000pt" height="354.000000pt" viewBox="0 0 354.000000 354.000000"
 preserveAspectRatio="xMidYMid meet">
<metadata>
Created by potrace 1.14, written by Peter Selinger 2001-2017
</metadata>
<g transform="translate(0.000000,354.000000) scale(0.100000,-0.100000)"
fill="#000000" stroke="none">
<path d="M1340 3215 c0 -8 20 -56 45 -105 56 -112 58 -146 11 -197 -19 -21
-68 -55 -110 -77 -115 -59 -162 -113 -170 -196 -11 -116 63 -201 207 -235 153
-37 208 -92 171 -170 -16 -35 -53 -70 -174 -167 -68 -55 -97 -97 -106 -153 -6
-45 10 -115 27 -115 5 0 14 20 20 44 13 54 76 122 176 192 138 97 165 120 191
163 33 57 34 130 2 195 -33 70 -67 91 -214 131 -145 40 -140 128 12 209 87 45
137 95 151 152 19 73 -3 141 -63 196 -83 79 -176 148 -176 133z"/>
<path d="M3272 2387 c-84 -254 -271 -822 -417 -1262 -146 -440 -265 -806 -265
-812 0 -9 15 -13 44 -13 62 0 92 28 139 129 45 98 89 193 140 301 103 220 158
351 232 545 87 230 177 525 231 760 30 128 26 110 54 245 25 123 20 97 60 285
18 83 32 160 31 173 -2 46 -52 112 -86 112 -5 0 -79 -208 -163 -463z"/>
<path d="M1019 2716 c-112 -77 -145 -249 -62 -333 78 -80 93 -104 93 -143 0
-22 -11 -66 -24 -98 -31 -72 -56 -192 -49 -235 5 -34 34 -87 58 -107 12 -10
14 -3 14 52 0 81 19 135 75 206 109 138 105 247 -14 372 -89 94 -111 178 -70
262 11 23 19 43 17 44 -2 2 -19 -7 -38 -20z"/>
<path d="M1769 2325 c-6 -82 -46 -156 -134 -253 -125 -136 -158 -198 -139
-262 l9 -30 45 41 c196 179 240 224 259 262 25 51 27 108 6 166 -15 44 -44 92
-46 76z"/>
<path d="M670 2295 c0 -3 8 -17 17 -31 24 -38 22 -135 -5 -207 -20 -52 -27
-109 -23 -175 1 -25 51 -82 71 -82 6 0 8 4 5 10 -3 5 -6 31 -6 57 0 46 9 78
51 168 42 90 31 158 -36 223 -38 36 -74 54 -74 37z"/>
<path d="M1980 2091 c0 -42 -24 -87 -71 -135 -48 -47 -65 -98 -49 -141 l11
-29 18 40 c10 23 42 61 70 85 61 53 80 98 62 152 -7 19 -19 41 -27 47 -12 10
-14 7 -14 -19z"/>
<path d="M3392 1705 c-68 -21 -95 -60 -143 -206 -56 -171 -49 -232 32 -290 49
-36 74 -34 116 8 74 74 132 226 139 364 3 75 1 88 -17 107 -11 12 -28 22 -39
22 -10 0 -24 2 -32 4 -7 3 -33 -1 -56 -9z"/>
<path d="M17 1602 c-10 -2 -17 -13 -17 -28 l0 -24 1344 0 1343 0 -5 25 c-2 14
-11 25 -21 26 -59 2 -2631 3 -2644 1z"/>
<path d="M4 1417 c3 -54 8 -101 10 -106 3 -4 8 -23 11 -42 41 -239 210 -512
420 -679 144 -115 358 -212 515 -236 14 -2 50 -7 80 -12 107 -16 661 -5 691
14 4 2 24 6 45 10 104 16 296 104 415 190 249 180 413 440 474 754 3 14 8 57
11 95 3 39 7 75 9 82 2 7 -1 16 -8 20 -7 4 -612 8 -1346 8 l-1333 0 6 -98z"/>
</g>
</svg>
